<?xml version="1.0" encoding="UTF-8" standalone="no"?>
<!-- Created with Inkscape (http://www.inkscape.org/) -->

<svg
   xmlns:dc="http://purl.org/dc/elements/1.1/"
   xmlns:cc="http://creativecommons.org/ns#"
   xmlns:rdf="http://www.w3.org/1999/02/22-rdf-syntax-ns#"
   xmlns:svg="http://www.w3.org/2000/svg"
   xmlns="http://www.w3.org/2000/svg"
   xmlns:sodipodi="http://sodipodi.sourceforge.net/DTD/sodipodi-0.dtd"
   xmlns:inkscape="http://www.inkscape.org/namespaces/inkscape"
   width="24"
   height="24"
   id="svg2"
   version="1.1"
   inkscape:version="0.48.4 r9939"
   inkscape:export-filename="C:\Users\marijn\Kalculator\icons\run.png"
   inkscape:export-xdpi="90"
   inkscape:export-ydpi="90"
   sodipodi:docname="node.svg">
  <defs
     id="defs4" />
  <sodipodi:namedview
     id="base"
     pagecolor="#ffffff"
     bordercolor="#666666"
     borderopacity="1.0"
     inkscape:pageopacity="0.0"
     inkscape:pageshadow="2"
     inkscape:zoom="16"
     inkscape:cx="-8.9249726"
     inkscape:cy="2.2523708"
     inkscape:document-units="px"
     inkscape:current-layer="layer2"
     showgrid="true"
     showguides="true"
     inkscape:guide-bbox="true"
     inkscape:window-width="1920"
     inkscape:window-height="1005"
     inkscape:window-x="-9"
     inkscape:window-y="-9"
     inkscape:window-maximized="1">
    <inkscape:grid
       type="xygrid"
       id="grid3859"
       empspacing="5"
       visible="true"
       enabled="true"
       snapvisiblegridlinesonly="true" />
  </sodipodi:namedview>
  <metadata
     id="metadata7">
    <rdf:RDF>
      <cc:Work
         rdf:about="">
        <dc:format>image/svg+xml</dc:format>
        <dc:type
           rdf:resource="http://purl.org/dc/dcmitype/StillImage" />
        <dc:title />
      </cc:Work>
    </rdf:RDF>
  </metadata>
  <g
     inkscape:label="Layer 1"
     inkscape:groupmode="layer"
     id="layer1"
     transform="translate(0,-1028.3622)" />
  <g
     inkscape:groupmode="layer"
     id="layer2"
     inkscape:label="Layer">
    <path
       sodipodi:type="arc"
       style="fill:#a8d1a8;fill-opacity:1;stroke:#a8d1a8;stroke-width:1.10627294000000000;stroke-linejoin:round;stroke-miterlimit:4;stroke-opacity:1;stroke-dasharray:none"
       id="path3877"
       sodipodi:cx="12"
       sodipodi:cy="12"
       sodipodi:rx="4"
       sodipodi:ry="4"
       d="m 16,12 a 4,4 0 1 1 -8,0 4,4 0 1 1 8,0 z"
       transform="matrix(0.90398126,0,0,0.90389078,1.2147566,1.1528452)" />
    <path
       sodipodi:type="arc"
       style="fill:#a8d1a8;fill-opacity:1;stroke:#a8d1a8;stroke-width:0.98527436999999995;stroke-linejoin:round;stroke-miterlimit:4;stroke-opacity:1;stroke-dasharray:none"
       id="path3879"
       sodipodi:cx="12.5"
       sodipodi:cy="5"
       sodipodi:rx="1.5"
       sodipodi:ry="1"
       d="m 14,5 a 1.5,1 0 1 1 -3,0 1.5,1 0 1 1 3,0 z"
       transform="matrix(1.0149965,0,0,1.0148949,-0.62492459,-1.6381159)" />
    <path
       transform="matrix(0.50749825,0.87892477,-0.87901275,0.50744746,17.409155,-6.0912896)"
       d="m 14,5 a 1.5,1 0 1 1 -3,0 1.5,1 0 1 1 3,0 z"
       sodipodi:ry="1"
       sodipodi:rx="1.5"
       sodipodi:cy="5"
       sodipodi:cx="12.5"
       id="path3881"
       style="fill:#a8d1a8;fill-opacity:1;stroke:#a8d1a8;stroke-width:0.98527436999999995;stroke-linejoin:round;stroke-miterlimit:4;stroke-opacity:1;stroke-dasharray:none"
       sodipodi:type="arc" />
    <path
       sodipodi:type="arc"
       style="fill:#a8d1a8;fill-opacity:1;stroke:#a8d1a8;stroke-width:0.98527436999999995;stroke-linejoin:round;stroke-miterlimit:4;stroke-opacity:1;stroke-dasharray:none"
       id="path3883"
       sodipodi:cx="12.5"
       sodipodi:cy="5"
       sodipodi:rx="1.5"
       sodipodi:ry="1"
       d="m 14,5 a 1.5,1 0 1 1 -3,0 1.5,1 0 1 1 3,0 z"
       transform="matrix(-0.50749825,0.87892477,-0.87901275,-0.50744746,29.969736,7.8000846)" />
    <path
       transform="matrix(-1.0149965,0,0,-1.0148949,24.749988,25.700617)"
       d="m 14,5 a 1.5,1 0 1 1 -3,0 1.5,1 0 1 1 3,0 z"
       sodipodi:ry="1"
       sodipodi:rx="1.5"
       sodipodi:cy="5"
       sodipodi:cx="12.5"
       id="path3885"
       style="fill:#a8d1a8;fill-opacity:1;stroke:#a8d1a8;stroke-width:0.98527436999999995;stroke-linejoin:round;stroke-miterlimit:4;stroke-opacity:1;stroke-dasharray:none"
       sodipodi:type="arc" />
    <path
       sodipodi:type="arc"
       style="fill:#a8d1a8;fill-opacity:1;stroke:#a8d1a8;stroke-width:0.98527436999999995;stroke-linejoin:round;stroke-miterlimit:4;stroke-opacity:1;stroke-dasharray:none"
       id="path3887"
       sodipodi:cx="12.5"
       sodipodi:cy="5"
       sodipodi:rx="1.5"
       sodipodi:ry="1"
       d="m 14,5 a 1.5,1 0 1 1 -3,0 1.5,1 0 1 1 3,0 z"
       transform="matrix(-0.50749825,-0.87892477,0.87901275,-0.50744746,7.0330951,29.836636)" />
    <path
       transform="matrix(0.71771091,-0.71763907,0.71771091,0.71763907,-7.665822,12.814802)"
       d="m 14,5 a 1.5,1 0 1 1 -3,0 1.5,1 0 1 1 3,0 z"
       sodipodi:ry="1"
       sodipodi:rx="1.5"
       sodipodi:cy="5"
       sodipodi:cx="12.5"
       id="path3889"
       style="fill:#a8d1a8;fill-opacity:1;stroke:#a8d1a8;stroke-width:0.98527436999999995;stroke-linejoin:round;stroke-miterlimit:4;stroke-opacity:1;stroke-dasharray:none"
       sodipodi:type="arc" />
    <path
       style="fill:#a8d1a8;stroke:#a8d1a8;stroke-width:1px;stroke-linecap:butt;stroke-linejoin:miter;stroke-opacity:1;fill-opacity:1"
       d="M 5.4650544,7.9399548 18.660009,16.059114"
       id="path3891"
       inkscape:connector-curvature="0" />
    <path
       style="fill:#a8d1a8;stroke:#a8d1a8;stroke-width:1px;stroke-linecap:butt;stroke-linejoin:miter;stroke-opacity:1;fill-opacity:1"
       d="M 19.167507,7.613739 4.9575561,16.385331"
       id="path3893"
       inkscape:connector-curvature="0" />
    <path
       style="fill:#a8d1a8;stroke:#a8d1a8;stroke-width:1px;stroke-linecap:butt;stroke-linejoin:miter;stroke-opacity:1;fill-opacity:1"
       d="m 12.125969,3.8803752 0,16.2383188"
       id="path3895"
       inkscape:connector-curvature="0" />
  </g>
</svg>
